<?xml version="1.0" standalone="no"?><svg xmlns="http://www.w3.org/2000/svg" viewBox="0 0 1440 320"><path fill="hsla(170,60%,40%,1)" fill-opacity="1" d="M0,128L16,144C32,160,64,192,96,186.7C128,181,160,139,192,122.7C224,107,256,117,288,112C320,107,352,85,384,74.7C416,64,448,64,480,74.7C512,85,544,107,576,106.7C608,107,640,85,672,117.3C704,149,736,235,768,272C800,309,832,299,864,277.3C896,256,928,224,960,218.7C992,213,1024,235,1056,218.7C1088,203,1120,149,1152,138.7C1184,128,1216,160,1248,154.7C1280,149,1312,107,1344,85.3C1376,64,1408,64,1424,64L1440,64L1440,0L1424,0C1408,0,1376,0,1344,0C1312,0,1280,0,1248,0C1216,0,1184,0,1152,0C1120,0,1088,0,1056,0C1024,0,992,0,960,0C928,0,896,0,864,0C832,0,800,0,768,0C736,0,704,0,672,0C640,0,608,0,576,0C544,0,512,0,480,0C448,0,416,0,384,0C352,0,320,0,288,0C256,0,224,0,192,0C160,0,128,0,96,0C64,0,32,0,16,0L0,0Z"></path></svg>